Coordinates
version=1
nRows=14
nColumns=42
inDegrees=yes

Units are S.I. units (second, meters, Newtons, ...)
If the header above contains a line with 'inDegrees', this indicates whether rotational values are in degrees (yes) or radians (no).

endheader
time	pelvis_tilt	pelvis_list	pelvis_rotation	pelvis_tx	pelvis_ty	pelvis_tz	hip_flexion_r	hip_adduction_r	hip_rotation_r	knee_angle_r	knee_adduction_r	knee_angle_r_beta	ankle_angle_r	subtalar_angle_r	mtp_angle_r	hip_flexion_l	hip_adduction_l	hip_rotation_l	knee_angle_l	knee_adduction_l	knee_angle_l_beta	ankle_angle_l	subtalar_angle_l	mtp_angle_l	lumbar_extension	lumbar_bending	lumbar_rotation	arm_flex_r	arm_add_r	arm_rot_r	elbow_flex_r	pro_sup_r	wrist_flex_r	wrist_dev_r	arm_flex_l	arm_add_l	arm_rot_l	elbow_flex_l	pro_sup_l	wrist_flex_l	wrist_dev_l
      4.02000000	    -12.08681688	      3.45000765	    -18.20346492	     -0.05533017	      1.15027256	     -0.59413640	     16.51271861	     -9.18641130	     -9.18715199	     10.74765987	      3.15316018	      0.18758205	      4.13017737	      0.00000000	      0.00000000	     15.43739965	     -8.94186525	     -6.64716741	     11.54253547	      3.75801753	      0.20145525	      7.75800457	      0.00000000	      0.00000000	    -11.80363819	     -3.09301843	      0.50636052	     25.39727390	    -19.21317937	     26.84980514	     90.81070660	     95.41952780	      0.00000000	      0.00000000	     30.66070483	    -15.39799277	     30.22225294	     89.66346598	     95.51251675	      0.00000000	      0.00000000
      4.03000000	    -11.74553621	      3.33919041	    -17.99407179	     -0.05101649	      1.15413857	     -0.59274818	     14.76236725	     -8.99251443	     -8.99456493	      8.56834510	      3.08983032	      0.14954583	      2.90347843	      0.00000000	      0.00000000	     13.77950204	     -8.54001122	     -5.89456323	      9.29670558	      3.34627559	      0.16225812	      6.41018898	      0.00000000	      0.00000000	    -11.10959417	     -3.05281827	      0.42127200	     23.30774786	    -19.11152290	     26.32188147	     91.08881987	     95.50093861	      0.00000000	      0.00000000	     29.05140836	    -15.50317610	     30.23846222	     89.84568633	     95.43704964	      0.00000000	      0.00000000
      4.04000000	    -11.34067122	      3.14509760	    -17.84178398	     -0.04676935	      1.15766944	     -0.59132335	     12.97898565	     -8.69588913	     -8.82061176	      6.47535438	      2.93179241	      0.11301625	      1.68176728	      0.00000000	      0.00000000	     12.06390298	     -8.27652343	     -5.35880051	      7.15584240	      3.02067900	      0.12489301	      5.11917283	      0.00000000	      0.00000000	    -10.52327624	     -2.95791210	      0.47755896	     21.24280168	    -19.11385487	     25.78064733	     91.40167136	     95.61071741	      0.00000000	      0.00000000	     27.50313049	    -15.57106705	     30.27612675	     90.02059583	     95.41247469	      0.00000000	      0.00000000
      4.05000000	    -10.81327525	      2.92966106	    -17.71627208	     -0.04274695	      1.16087511	     -0.59005136	     11.16094763	     -8.39885723	     -8.75987099	      4.53208943	      2.67189012	      0.07909988	      0.42890599	      0.00000000	      0.00000000	     10.28647023	     -7.99764706	     -4.92780883	      5.13016390	      2.63257672	      0.08953825	      3.86391610	      0.00000000	      0.00000000	    -10.17520535	     -2.84465226	      0.55826051	     19.32294134	    -19.21171008	     25.38449609	     91.83885403	     95.75242282	      0.00000000	      0.00000000	     26.11752525	    -15.74837642	     30.46734703	     90.26118272	     95.39222224	      0.00000000	      0.00000000
      4.06000000	    -10.76751463	      2.88661496	    -17.59525801	     -0.03901374	      1.16300571	     -0.58898035	     10.05439736	     -8.17806869	     -8.79862829	      2.89280201	      2.49564701	      0.05048892	     -0.51555763	      0.00000000	      0.00000000	      9.24058318	     -7.69545326	     -4.58022211	      3.48505363	      2.16613402	      0.06082566	      2.81633720	      0.00000000	      0.00000000	     -9.25002206	     -2.74704711	      0.56317202	     17.33938962	    -19.09552180	     24.82168887	     92.05999666	     95.83821571	      0.00000000	      0.00000000	     24.48712521	    -15.80507123	     30.26878835	     90.48874911	     95.41103475	      0.00000000	      0.00000000
      4.07000000	    -10.86792316	      2.91760277	    -17.46977280	     -0.03580701	      1.16436119	     -0.58800716	      9.38649712	     -7.92409803	     -9.23132746	      1.73264743	      2.13244836	      0.03024040	     -0.73090213	      0.00000000	      0.00000000	      8.63991963	     -7.39985425	     -4.89373998	      2.34591408	      1.69655961	      0.04094392	      2.58164288	      0.00000000	      0.00000000	     -8.17747861	     -2.70800738	      0.50349006	     15.62601372	    -19.18998370	     24.81077418	     92.20175018	     95.88032837	      0.00000000	      0.00000000	     23.02424060	    -16.10133044	     30.43157623	     90.69426483	     95.45671239	      0.00000000	      0.00000000
      4.08000000	    -10.69846829	      2.84143975	    -17.59781427	     -0.03318984	      1.16614323	     -0.58678924	      8.59179288	     -7.61787831	     -9.12284361	      0.77187601	      1.78394811	      0.01347178	     -2.02311162	      0.00000000	      0.00000000	      7.61342472	     -7.22801441	     -4.57189775	      1.05100342	      1.35994083	      0.01834347	      1.21198411	      0.00000000	      0.00000000	     -7.64443517	     -2.69588128	      0.72569484	     13.79398281	    -18.93474414	     23.98793267	     92.44354126	     95.95257422	      0.00000000	      0.00000000	     21.49889865	    -16.06597601	     29.93449687	     91.09016542	     95.47662067	      0.00000000	      0.00000000
      4.09000000	    -10.85113048	      2.87915362	    -17.42617035	     -0.03040223	      1.16699202	     -0.58625707	      8.36545520	     -7.45170598	    -10.04286796	      0.40857002	      1.46285350	      0.00713089	     -2.53210800	      0.00000000	      0.00000000	      7.42004888	     -6.88185165	     -4.85627217	      0.57972873	      0.76226282	      0.01011818	      0.61959450	      0.00000000	      0.00000000	     -6.70524945	     -2.62808357	      0.67512938	     12.01691336	    -18.89047348	     23.55087767	     92.64669008	     96.08577570	      0.00000000	      0.00000000	     20.07493456	    -16.17879142	     29.86110730	     91.30015329	     95.53114504	      0.00000000	      0.00000000
      4.10000000	    -11.06220374	      3.00424324	    -17.32481834	     -0.02839020	      1.16747702	     -0.58563083	      8.40527254	     -7.32395535	    -10.77466008	      0.27807709	      1.12348870	      0.00485336	     -2.77152338	      0.00000000	      0.00000000	      7.45182348	     -6.53333474	     -5.14644965	      0.36985560	      0.25908849	      0.00645520	      0.31773910	      0.00000000	      0.00000000	     -5.76814949	     -2.69517668	      0.68209621	     10.33604213	    -18.74682444	     23.08962069	     92.73114192	     96.20088775	      0.00000000	      0.00000000	     18.77248725	    -16.33359933	     29.80945913	     91.49033414	     95.57232279	      0.00000000	      0.00000000
      4.11000000	    -11.67265185	      3.20977817	    -17.31797242	     -0.02668565	      1.16725910	     -0.58503460	      8.95717852	     -7.16438621	    -11.33063900	      0.21599043	      0.81974629	      0.00376974	     -2.66289068	      0.00000000	      0.00000000	      7.99863177	     -6.21747164	     -5.77329121	      0.30180381	     -0.28937498	      0.00526747	      0.31395773	      0.00000000	      0.00000000	     -4.37027085	     -2.67688534	      0.72186721	      8.80837732	    -18.72088054	     23.02899200	     92.77391204	     94.85156549	      0.00000000	      0.00000000	     17.38889385	    -16.50551054	     29.80835197	     91.74844495	     94.24741373	      0.00000000	      0.00000000
      4.12000000	    -11.76311105	      3.34370442	    -17.19097786	     -0.02487760	      1.16756845	     -0.58471438	      8.91674173	     -7.14965725	    -11.80865052	      0.17421292	      0.58896382	      0.00304059	     -3.06669737	      0.00000000	      0.00000000	      7.97071281	     -5.87168190	     -5.57130183	      0.21490585	     -0.65953658	      0.00375081	     -0.13144849	      0.00000000	      0.00000000	     -3.73171948	     -2.76242917	      0.69620850	      7.15235118	    -18.42362962	     22.33184488	     92.96629952	     93.81531305	      0.00000000	      0.00000000	     16.08634681	    -16.51338556	     29.58873256	     92.12171641	     93.02331753	      0.00000000	      0.00000000
      4.13000000	    -11.94280654	      3.49023169	    -17.15216461	     -0.02313260	      1.16765173	     -0.58414167	      9.02375341	     -7.09270317	    -12.39892886	      0.14795455	      0.32855745	      0.00258229	     -3.09565095	      0.00000000	      0.00000000	      8.06613450	     -5.58489813	     -5.93304800	      0.18280610	     -0.97059867	      0.00319057	     -0.20449061	      0.00000000	      0.00000000	     -2.98746914	     -2.84447848	      1.06479621	      5.28996021	    -18.19598679	     21.26051310	     92.76241311	     96.89198882	      0.00000000	      0.00000000	     15.15973292	    -16.53750963	     29.80242884	     91.79886579	     94.45037036	      0.00000000	      0.00000000
      4.14000000	    -12.10198384	      3.55639959	    -17.22445171	     -0.02154048	      1.16780056	     -0.58353540	      9.11423195	     -6.95567177	    -12.69214289	      0.12958002	      0.08305495	      0.00226160	     -3.16155519	      0.00000000	      0.00000000	      8.09916696	     -5.37187027	     -6.19958108	      0.15523311	     -1.32771751	      0.00270933	     -0.21882773	      0.00000000	      0.00000000	     -2.31664430	     -2.83937333	      0.99206301	      4.05538429	    -17.81308429	     20.89876594	     92.24404622	     97.67342172	      0.00000000	      0.00000000	     13.72691767	    -16.66611705	     29.26728603	     91.95532253	     94.98272110	      0.00000000	      0.00000000
      4.15000000	    -11.95783975	      3.35403484	    -17.08179417	     -0.01961452	      1.16841234	     -0.58351233	      8.73584673	     -6.75027265	    -13.30983467	      0.11413551	     -0.03038834	      0.00199204	     -3.15207587	      0.00000000	      0.00000000	      7.78857972	     -5.33468367	     -6.31864097	      0.13658171	     -1.56945263	      0.00238380	     -0.12316707	      0.00000000	      0.00000000	     -2.13167632	     -2.64715063	      0.77907155	      2.81715411	    -17.59249954	     20.60606560	     92.13173083	     95.35659290	      0.00000000	      0.00000000	     12.51006417	    -16.67605000	     29.01673131	     92.27890288	     92.94021325	      0.00000000	      0.00000000
